<?xml version="1.0" encoding="UTF-8" standalone="no"?>
<!DOCTYPE svg PUBLIC "-//W3C//DTD SVG 1.1//EN"
 "http://www.w3.org/Graphics/SVG/1.1/DTD/svg11.dtd">
<!-- Generated by graphviz version 9.0.0 (20230911.1827)
 -->
<!-- Title: nucleo&#45;f031k6 Pages: 1 -->
<svg width="956pt" height="288pt"
 viewBox="0.00 0.00 956.00 287.94" xmlns="http://www.w3.org/2000/svg" xmlns:xlink="http://www.w3.org/1999/xlink">
<g id="graph0" class="graph" transform="scale(1 1) rotate(0) translate(4 283.94)">
<title>nucleo&#45;f031k6</title>
<polygon fill="white" stroke="none" points="-4,4 -4,-283.94 952,-283.94 952,4 -4,4"/>
<g id="clust1" class="cluster">
<title>clusterLegend</title>
<polygon fill="none" stroke="black" points="8,-8 8,-271.94 544,-271.94 544,-8 8,-8"/>
<text text-anchor="middle" x="276" y="-254.64" font-family="Times,serif" font-size="14.00">Legend</text>
</g>
<!-- legendNode0 -->
<g id="node1" class="node">
<title>legendNode0</title>
<polygon fill="none" stroke="black" points="288.29,-203.49 291.14,-203.58 293.95,-203.73 296.72,-203.93 299.44,-204.17 302.1,-204.46 304.68,-204.8 307.18,-205.18 309.59,-205.61 311.89,-206.08 314.09,-206.6 316.17,-207.15 318.12,-207.74 319.94,-208.37 321.62,-209.04 323.17,-209.74 324.57,-210.47 325.82,-211.24 326.92,-212.03 327.87,-212.84 328.66,-213.68 329.31,-214.55 329.8,-215.43 330.15,-216.32 330.34,-217.23 330.4,-218.15 330.31,-219.09 330.08,-220.02 329.73,-220.96 329.24,-221.91 328.64,-222.85 327.92,-223.79 327.08,-224.72 326.14,-225.64 325.11,-226.55 323.98,-227.45 322.77,-228.33 321.48,-229.19 320.11,-230.03 318.68,-230.84 317.18,-231.63 315.63,-232.4 314.03,-233.13 312.39,-233.83 310.7,-234.5 308.98,-235.13 307.23,-235.72 305.46,-236.28 303.65,-236.79 301.83,-237.26 300,-237.69 298.14,-238.07 296.28,-238.41 294.4,-238.7 292.52,-238.94 290.63,-239.14 288.74,-239.29 286.85,-239.39 284.95,-239.44 283.05,-239.44 281.15,-239.39 279.26,-239.29 277.37,-239.14 275.48,-238.94 273.6,-238.7 271.72,-238.41 269.86,-238.07 268,-237.69 266.17,-237.26 264.35,-236.79 262.54,-236.28 260.77,-235.72 259.02,-235.13 257.3,-234.5 255.61,-233.83 253.97,-233.13 252.37,-232.4 250.82,-231.63 249.32,-230.84 247.89,-230.03 246.52,-229.19 245.23,-228.33 244.02,-227.45 242.89,-226.55 241.86,-225.64 240.92,-224.72 240.08,-223.79 239.36,-222.85 238.76,-221.91 238.27,-220.96 237.92,-220.02 237.69,-219.09 237.6,-218.15 237.66,-217.23 237.85,-216.32 238.2,-215.43 238.69,-214.55 239.34,-213.68 240.13,-212.84 241.08,-212.03 242.18,-211.24 243.43,-210.47 244.83,-209.74 246.38,-209.04 248.06,-208.37 249.88,-207.74 251.83,-207.15 253.91,-206.6 256.11,-206.08 258.41,-205.61 260.82,-205.18 263.32,-204.8 265.9,-204.46 268.56,-204.17 271.28,-203.93 274.05,-203.73 276.86,-203.58 279.71,-203.49 282.57,-203.44 285.43,-203.44 288.29,-203.49"/>
<text text-anchor="middle" x="284" y="-217.16" font-family="Times,serif" font-size="12.00">Executable</text>
</g>
<!-- legendNode1 -->
<g id="node2" class="node">
<title>legendNode1</title>
<polygon fill="none" stroke="black" points="126.42,-123.04 126.42,-137.96 93.96,-148.5 48.04,-148.5 15.58,-137.96 15.58,-123.04 48.04,-112.5 93.96,-112.5 126.42,-123.04"/>
<text text-anchor="middle" x="71" y="-126.22" font-family="Times,serif" font-size="12.00">Static Library</text>
</g>
<!-- legendNode0&#45;&gt;legendNode1 -->
<g id="edge1" class="edge">
<title>legendNode0&#45;&gt;legendNode1</title>
<path fill="none" stroke="black" d="M251.65,-206.93C215.11,-191.67 155.46,-166.77 114.78,-149.78"/>
<polygon fill="black" stroke="black" points="116.33,-146.63 105.75,-146.01 113.63,-153.09 116.33,-146.63"/>
</g>
<!-- legendNode2 -->
<g id="node3" class="node">
<title>legendNode2</title>
<polygon fill="none" stroke="black" points="268.07,-123.04 268.07,-137.96 232.88,-148.5 183.12,-148.5 147.93,-137.96 147.93,-123.04 183.12,-112.5 232.88,-112.5 268.07,-123.04"/>
<polygon fill="none" stroke="black" points="272.07,-120.07 272.07,-140.93 233.47,-152.5 182.53,-152.5 143.93,-140.93 143.93,-120.07 182.53,-108.5 233.47,-108.5 272.07,-120.07"/>
<text text-anchor="middle" x="208" y="-126.22" font-family="Times,serif" font-size="12.00">Shared Library</text>
</g>
<!-- legendNode0&#45;&gt;legendNode2 -->
<g id="edge2" class="edge">
<title>legendNode0&#45;&gt;legendNode2</title>
<path fill="none" stroke="black" d="M269.7,-203.71C259.52,-191.79 245.55,-175.45 233.49,-161.32"/>
<polygon fill="black" stroke="black" points="236.41,-159.35 227.25,-154.03 231.08,-163.9 236.41,-159.35"/>
</g>
<!-- legendNode3 -->
<g id="node4" class="node">
<title>legendNode3</title>
<polygon fill="none" stroke="black" points="423.65,-123.04 423.65,-137.96 386.95,-148.5 335.05,-148.5 298.35,-137.96 298.35,-123.04 335.05,-112.5 386.95,-112.5 423.65,-123.04"/>
<polygon fill="none" stroke="black" points="427.65,-120.03 427.65,-140.97 387.51,-152.5 334.49,-152.5 294.35,-140.97 294.35,-120.03 334.49,-108.5 387.51,-108.5 427.65,-120.03"/>
<polygon fill="none" stroke="black" points="431.65,-117.02 431.65,-143.98 388.08,-156.5 333.92,-156.5 290.35,-143.98 290.35,-117.02 333.92,-104.5 388.08,-104.5 431.65,-117.02"/>
<text text-anchor="middle" x="361" y="-126.22" font-family="Times,serif" font-size="12.00">Module Library</text>
</g>
<!-- legendNode0&#45;&gt;legendNode3 -->
<!-- legendNode7 -->
<g id="node8" class="node">
<title>legendNode7</title>
<polygon fill="none" stroke="black" points="535.88,-148.5 450.12,-148.5 450.12,-112.5 535.88,-112.5 535.88,-148.5"/>
<text text-anchor="middle" x="493" y="-126.22" font-family="Times,serif" font-size="12.00">Custom Target</text>
</g>
<!-- legendNode0&#45;&gt;legendNode7 -->
<!-- legendNode4 -->
<g id="node5" class="node">
<title>legendNode4</title>
<polygon fill="none" stroke="black" points="166.08,-39.56 91,-52 15.92,-39.56 44.6,-19.44 137.4,-19.44 166.08,-39.56"/>
<text text-anchor="middle" x="91" y="-29.73" font-family="Times,serif" font-size="12.00">Interface Library</text>
</g>
<!-- legendNode1&#45;&gt;legendNode4 -->
<g id="edge4" class="edge">
<title>legendNode1&#45;&gt;legendNode4</title>
<path fill="none" stroke="black" stroke-dasharray="5,2" d="M74.67,-112.17C77.59,-98.36 81.74,-78.77 85.12,-62.78"/>
<polygon fill="black" stroke="black" points="88.46,-63.89 87.11,-53.39 81.61,-62.44 88.46,-63.89"/>
<text text-anchor="middle" x="108" y="-73.2" font-family="Times,serif" font-size="14.00">Interface</text>
</g>
<!-- legendNode5 -->
<g id="node6" class="node">
<title>legendNode5</title>
<polygon fill="none" stroke="black" points="309.98,-34 278.49,-52 215.51,-52 184.02,-34 215.51,-16 278.49,-16 309.98,-34"/>
<text text-anchor="middle" x="247" y="-29.73" font-family="Times,serif" font-size="12.00">Object Library</text>
</g>
<!-- legendNode2&#45;&gt;legendNode5 -->
<g id="edge5" class="edge">
<title>legendNode2&#45;&gt;legendNode5</title>
<path fill="none" stroke="black" stroke-dasharray="1,5" d="M216.85,-108.06C222.4,-94.6 229.61,-77.13 235.59,-62.64"/>
<polygon fill="black" stroke="black" points="238.72,-64.24 239.3,-53.66 232.25,-61.57 238.72,-64.24"/>
<text text-anchor="middle" x="252.12" y="-73.2" font-family="Times,serif" font-size="14.00">Private</text>
</g>
<!-- legendNode6 -->
<g id="node7" class="node">
<title>legendNode6</title>
<polygon fill="none" stroke="black" points="472.18,-29.99 457.89,-45.22 400,-52 342.11,-45.22 327.82,-29.99 367.88,-17.78 432.12,-17.78 472.18,-29.99"/>
<text text-anchor="middle" x="400" y="-29.73" font-family="Times,serif" font-size="12.00">Unknown Library</text>
</g>
<!-- legendNode3&#45;&gt;legendNode6 -->
<g id="edge6" class="edge">
<title>legendNode3&#45;&gt;legendNode6</title>
<path fill="none" stroke="black" d="M371.45,-104.18C376.85,-91.11 383.43,-75.16 388.91,-61.87"/>
<polygon fill="black" stroke="black" points="392.05,-63.44 392.63,-52.86 385.58,-60.77 392.05,-63.44"/>
</g>
<!-- node0 -->
<g id="node9" class="node">
<title>node0</title>
<polygon fill="none" stroke="black" points="791.59,-209.86 791.59,-233.01 721.54,-249.37 622.46,-249.37 552.41,-233.01 552.41,-209.86 622.46,-193.5 721.54,-193.5 791.59,-209.86"/>
<text text-anchor="middle" x="672" y="-224.29" font-family="Times,serif" font-size="12.00">STM32CubeF0</text>
<text text-anchor="middle" x="672" y="-210.04" font-family="Times,serif" font-size="12.00">(STM32CubeF0::framework)</text>
</g>
<!-- node1 -->
<g id="node10" class="node">
<title>node1</title>
<polygon fill="none" stroke="black" points="724.08,-136.06 672,-148.5 619.92,-136.06 639.81,-115.94 704.19,-115.94 724.08,-136.06"/>
<text text-anchor="middle" x="672" y="-126.22" font-family="Times,serif" font-size="12.00">cmsis&#45;core</text>
</g>
<!-- node0&#45;&gt;node1 -->
<g id="edge8" class="edge">
<title>node0&#45;&gt;node1</title>
<path fill="none" stroke="black" stroke-dasharray="5,2" d="M672,-193.27C672,-182.8 672,-170.82 672,-160.21"/>
<polygon fill="black" stroke="black" points="675.5,-160.49 672,-150.49 668.5,-160.49 675.5,-160.49"/>
</g>
<!-- node2 -->
<g id="node11" class="node">
<title>node2</title>
<polygon fill="none" stroke="black" points="876.22,-227 843,-239.44 809.78,-227 822.47,-206.87 863.53,-206.87 876.22,-227"/>
<text text-anchor="middle" x="843" y="-217.16" font-family="Times,serif" font-size="12.00">cmsis</text>
</g>
<!-- node3 -->
<g id="node12" class="node">
<title>node3</title>
<polygon fill="none" stroke="black" points="895.59,-126.49 885.18,-141.72 843,-148.5 800.82,-141.72 790.41,-126.49 819.59,-114.28 866.41,-114.28 895.59,-126.49"/>
<text text-anchor="middle" x="843" y="-126.22" font-family="Times,serif" font-size="12.00">CMSISDSP</text>
</g>
<!-- node2&#45;&gt;node3 -->
<g id="edge9" class="edge">
<title>node2&#45;&gt;node3</title>
<path fill="none" stroke="black" stroke-dasharray="5,2" d="M843,-206.54C843,-194.16 843,-175.65 843,-160.12"/>
<polygon fill="black" stroke="black" points="846.5,-160.48 843,-150.48 839.5,-160.48 846.5,-160.48"/>
</g>
<!-- node4 -->
<g id="node13" class="node">
<title>node4</title>
<polygon fill="none" stroke="black" points="948,-213.98 948,-228.89 932.18,-239.44 909.82,-239.44 894,-228.89 894,-213.98 909.82,-203.44 932.18,-203.44 948,-213.98"/>
<text text-anchor="middle" x="921" y="-217.16" font-family="Times,serif" font-size="12.00">qpc</text>
</g>
</g>
</svg>
